<svg xmlns="http://www.w3.org/2000/svg" xmlns:xlink="http://www.w3.org/1999/xlink" version="1.1" x="0px" y="0px" width="100px" height="100px" viewBox="0 0 100 100" enable-background="new 0 0 100 100" xml:space="preserve">
<g id="Captions">
	<rect x="-192" width="185" height="99"/>
	<rect y="-36" width="100" height="30"/>
	<text transform="matrix(1 0 0 1 66 -19.5)" fill="#000000" font-family="'Helvetica'" font-size="2.4">http://thenounproject.com</text>
	<text transform="matrix(1 0 0 1 7.166 -24.5)"><tspan x="0" y="0" fill="#000000" font-family="'Helvetica-Bold'" font-size="6.1578">The Noun Project</tspan><tspan x="1.12" y="4.8" fill="#000000" font-family="'Helvetica-Bold'" font-size="4">Icon Template</tspan></text>
	<text transform="matrix(1 0 0 1 -178.5 10.5)" fill="#000000" font-family="'Helvetica-Bold'" font-size="6.1578">Reminders</text>
	<line fill="#000000" stroke="#FFFFFF" stroke-miterlimit="10" x1="8" y1="-14.5" x2="18" y2="-14.5"/>
	<line fill="#000000" stroke="#FFFFFF" stroke-miterlimit="10" x1="-179" y1="16.5" x2="-162" y2="16.5"/>
	<g>
		<g>
			<g>
				<rect x="-170.802" y="31.318" fill="#000000" width="8.721" height="8.642"/>
				<path fill="#000000" d="M-164.455,42.312h4.747v-4.703h-4.747V42.312z M-159.266,42.749h-5.63V37.17h5.63V42.749      L-159.266,42.749z M-166.221,44.062h8.279v-8.203h-8.279V44.062L-166.221,44.062z M-157.5,44.5h-9.163v-9.079h9.163V44.5      L-157.5,44.5z"/>
				<polygon fill="#000000" points="-166.149,44.133 -166.292,43.991 -158.013,35.787 -157.871,35.929     "/>
			</g>
		</g>
	</g>
	<rect x="-179" y="58" fill="none" width="35" height="32.5"/>
	<text transform="matrix(1 0 0 1 -179 60.1543)"><tspan x="0" y="0" fill="#000000" font-family="'Helvetica-Bold'" font-size="3">Strokes</tspan><tspan x="0" y="5" fill="#000000" font-family="'Helvetica'" font-size="2.4">Try to keep strokes at 4px</tspan><tspan x="0" y="10" fill="#000000" font-family="'Helvetica'" font-size="2.4">Minimum stroke weight is 2px</tspan><tspan x="0" y="14.5" fill="#000000" font-family="'Helvetica'" font-size="2.4">For thicker strokes use even </tspan><tspan x="0" y="17.5" fill="#000000" font-family="'Helvetica'" font-size="2.4">numbers: 6px, 8px etc.</tspan><tspan x="0" y="22" fill="#000000" font-family="'Helvetica-Bold'" font-size="2.4">Remember to expand strokes </tspan><tspan x="0" y="25" fill="#000000" font-family="'Helvetica-Bold'" font-size="2.4">before saving as an SVG </tspan></text>
	<rect x="-136.5" y="58" fill="none" width="35" height="32.5"/>
	<text transform="matrix(1 0 0 1 -136.5 60.1543)"><tspan x="0" y="0" fill="#000000" font-family="'Helvetica-Bold'" font-size="3">Size</tspan><tspan x="0" y="5" fill="#000000" font-family="'Helvetica'" font-size="2.4">Cannot be wider or taller than </tspan><tspan x="0" y="8.5" fill="#000000" font-family="'Helvetica'" font-size="2.4">100px (artboard size)</tspan><tspan x="0" y="13.5" fill="#000000" font-family="'Helvetica'" font-size="2.4">Scale your icon to fill as much of </tspan><tspan x="0" y="16.5" fill="#000000" font-family="'Helvetica'" font-size="2.4">the artboard as possible</tspan></text>
	<rect x="-94" y="58" fill="none" width="35" height="32.5"/>
	<text transform="matrix(1 0 0 1 -94 60.1543)"><tspan x="0" y="0" fill="#000000" font-family="'Helvetica-Bold'" font-size="3">Ungroup</tspan><tspan x="0" y="5" fill="#000000" font-family="'Helvetica'" font-size="2.4">If your design has more than one </tspan><tspan x="0" y="8" fill="#000000" font-family="'Helvetica'" font-size="2.4">shape, make sure to ungroup</tspan></text>
	<rect x="-50" y="58" fill="none" width="35" height="32.5"/>
	<text transform="matrix(1 0 0 1 -50 60.1543)"><tspan x="0" y="0" fill="#000000" font-family="'Helvetica-Bold'" font-size="3">Save as</tspan><tspan x="0" y="5" fill="#000000" font-family="'Helvetica'" font-size="2.4">Save as .SVG and make sure </tspan><tspan x="0" y="8" fill="#000000" font-family="'Helvetica'" font-size="2.4">&#8220;Use Artboards&#8221; is checked</tspan></text>
	<text transform="matrix(1.0074 0 0 1 -125.542 30.5933)" fill="#000000" font-family="'Helvetica'" font-size="2.5731">100px</text>
	<text transform="matrix(1.0074 0 0 1 -41 39)" fill="#000000" font-family="'Helvetica-Bold'" font-size="5.1462">.SVG</text>
	<rect x="-126.514" y="34.815" fill="#000000" width="10.261" height="10.185"/>
	<rect x="-126.477" y="31.766" fill="#000000" width="0.522" height="2.337"/>
	<rect x="-116.813" y="31.766" fill="#000000" width="0.523" height="2.337"/>
	<rect x="-127" y="32.337" fill="#000000" width="11.233" height="0.572"/>
	<g>
		<rect x="-83.805" y="33.844" fill="#000000" width="10.305" height="10.156"/>
		<rect x="-76.809" y="28.707" fill="#000000" width="3.308" height="3.261"/>
	</g>
	<rect x="-178.5" y="22.5" fill="#000000" stroke="#FFFFFF" stroke-miterlimit="10" width="30" height="30"/>
	<rect x="-136.5" y="22.5" fill="#000000" stroke="#FFFFFF" stroke-miterlimit="10" width="30" height="30"/>
	<rect x="-93.5" y="22.5" fill="#000000" stroke="#FFFFFF" stroke-miterlimit="10" width="30" height="30"/>
	<rect x="-49.5" y="22.5" fill="#000000" stroke="#FFFFFF" stroke-miterlimit="10" width="30" height="30"/>
</g>
<g id="Your_Icon">
	<path d="M100.021,20.695l-15.112-5.593l-0.002,0.002L79.302,0L66.324,10.74L49.399,3.573l0.012,18.583h-25.15l7.7,7.64   l-3.726,3.758l-7.284-7.228v52.734h41.642L52.383,68.85l7.438,1.121l-1.277-5.407l5.352,1.076l-1.245-5.361l5.579,1.292   l-1.139-7.445l10.767,10.766v-14.33l18.605,0.044l-7.175-16.923L100.021,20.695z M39.221,61.307V37.857l19.996,11.725   L39.221,61.307z"/>
	<path d="M34.713,20.072l0.324-2.371L15.01,14.978l-2.937-2.873l0.236-0.068c1.375-0.399,2.527-1.364,3.159-2.647   c0.606-1.225,0.697-2.615,0.256-3.914c-0.442-1.3-1.36-2.348-2.587-2.954c-0.709-0.35-1.469-0.526-2.257-0.526   c-1.971,0-3.737,1.095-4.607,2.858C5.198,7.037,5.821,9.698,7.754,11.18l3.268,3.256l-4.571-0.613   c-0.436-0.118-0.884-0.177-1.333-0.177c-1.962,0-3.72,1.093-4.589,2.853c-1.251,2.534-0.208,5.614,2.328,6.866   c0.712,0.352,1.473,0.53,2.26,0.53c1.972,0,3.737-1.097,4.606-2.86c0.633-1.282,0.698-2.783,0.177-4.117l-0.089-0.23l3.986,0.541   l14.429,14.277l1.686-1.7l-7.708-7.648l0,0l-4.419-4.385L34.713,20.072z M6.928,19.655c-0.342,0.69-1.033,1.12-1.805,1.12   c-0.308,0-0.607-0.069-0.885-0.208c-0.993-0.49-1.403-1.697-0.914-2.691c0.341-0.689,1.033-1.119,1.806-1.119   c0.308,0,0.607,0.07,0.885,0.207c0.48,0.236,0.84,0.648,1.012,1.157C7.2,18.629,7.166,19.174,6.928,19.655z M10.866,9.13   c-0.309,0-0.607-0.069-0.886-0.207C9.5,8.686,9.142,8.274,8.97,7.767C8.798,7.258,8.834,6.712,9.071,6.23   c0.336-0.68,1.044-1.118,1.803-1.118c0.309,0,0.606,0.069,0.883,0.206c0.481,0.236,0.841,0.648,1.014,1.157   c0.172,0.509,0.138,1.053-0.099,1.533C12.332,8.7,11.64,9.13,10.866,9.13z"/>
	<path d="M85.649,81.59l3.72-3.718l-2.793-2.795l0.574-0.576l-6.219-6.22l-0.92,0.917l-2.155-2.155l-8.558-8.557l0.774,5.078   l-5.387-1.253l1.225,5.288l-5.339-1.074l1.25,5.287l-5.088-0.765l8.013,8.013l2.703,2.702l-0.852,0.852l6.22,6.22l0.507-0.508   l2.794,2.794l3.901-3.9l9.646,10.783l6.272-0.286l0.507-6.479L85.649,81.59z M85.063,74.499L72.816,86.748l-4.134-4.134   L80.93,70.367L85.063,74.499z M74.371,87.281L85.53,76.123l1.748,1.749L76.119,89.03L74.371,87.281z M94.573,96.302l-4.28,0.194   L81.071,86.17l3.527-3.527l10.321,9.205L94.573,96.302z"/>
</g>
</svg>